$MeshFormat
4.1 0 8
$EndMeshFormat
$Entities
0 0 1 0
1 -110 -110 0 110 110 500 0 0 
$EndEntities
$Nodes
1 128 1 495
2 1 0 128
1
2
3
6
7
8
9
12
13
18
20
21
25
26
27
30
31
32
33
36
37
38
39
42
43
44
45
48
49
50
51
54
56
57
61
62
63
66
67
68
69
72
73
74
75
78
85
90
91
92
93
96
97
98
99
102
103
105
109
114
115
116
117
120
127
128
129
132
133
134
135
138
139
140
141
144
145
146
147
150
151
152
153
156
158
159
164
168
170
174
175
177
214
220
226
232
236
242
256
290
296
302
308
316
322
328
334
340
344
362
369
386
387
396
398
399
410
415
417
440
450
456
464
468
474
488
494
495
21.45993423461914 107.8863830566406 0
10.78188514709473 109.4703216552734 500
21.45993423461914 107.8863830566406 500
10.78188514709473 109.4703216552734 0
109.4703216552734 10.78188514709473 500
107.8863830566406 21.45993423461914 0
107.8863830566406 21.45993423461914 500
109.4703216552734 10.78188514709473 0
110 0 500
110 0 0
105.2634353637695 31.93131446838379 0
105.2634353637695 31.93131446838379 500
31.93131446838379 -105.2634353637695 0
42.09517669677734 -101.6267471313477 500
31.93131446838379 -105.2634353637695 500
42.09517669677734 -101.6267471313477 0
97.01133728027344 -51.85364151000977 500
101.6267471313477 -42.09517669677734 0
101.6267471313477 -42.09517669677734 500
97.01133728027344 -51.85364151000977 0
77.78174591064453 77.78174591064453 0
69.78326416015625 85.03115081787109 500
77.78174591064453 77.78174591064453 500
69.78326416015625 85.03115081787109 0
-85.03115081787109 69.78326416015625 0
-77.78174591064453 77.78174591064453 500
-77.78174591064453 77.78174591064453 0
-85.03115081787109 69.78326416015625 500
-21.45993423461914 -107.8863830566406 0
-10.78188514709473 -109.4703216552734 500
-21.45993423461914 -107.8863830566406 500
-10.78188514709473 -109.4703216552734 0
101.6267471313477 42.09517669677734 0
101.6267471313477 42.09517669677734 500
0 110 0
-10.78188514709473 109.4703216552734 500
0 110 500
-10.78188514709473 109.4703216552734 0
91.46165466308594 61.11272430419922 500
85.03115081787109 69.78326416015625 0
85.03115081787109 69.78326416015625 500
91.46165466308594 61.11272430419922 0
0 -110 0
10.78188514709473 -109.4703216552734 500
0 -110 500
10.78188514709473 -109.4703216552734 0
91.46165466308594 -61.11272430419922 500
91.46165466308594 -61.11272430419922 0
-69.78326416015625 -85.03115081787109 0
-61.11272430419922 -91.46165466308594 500
-69.78326416015625 -85.03115081787109 500
-61.11272430419922 -91.46165466308594 0
-97.01133728027344 51.85364151000977 0
-91.46165466308594 61.11272430419922 500
-91.46165466308594 61.11272430419922 0
-97.01133728027344 51.85364151000977 500
-31.93131446838379 -105.2634353637695 0
-31.93131446838379 -105.2634353637695 500
97.01133728027344 51.85364151000977 500
97.01133728027344 51.85364151000977 0
-109.4703216552734 -10.78188514709473 0
-110 0 500
-110 0 0
-109.4703216552734 -10.78188514709473 500
105.2634353637695 -31.93131446838379 500
107.8863830566406 -21.45993423461914 0
107.8863830566406 -21.45993423461914 500
105.2634353637695 -31.93131446838379 0
-107.8863830566406 21.45993423461914 0
-105.2634353637695 31.93131446838379 500
-105.2634353637695 31.93131446838379 0
-107.8863830566406 21.45993423461914 500
-51.85364151000977 -97.01133728027344 0
-42.09517669677734 -101.6267471313477 500
-51.85364151000977 -97.01133728027344 500
-42.09517669677734 -101.6267471313477 0
-105.2634353637695 -31.93131446838379 0
-107.8863830566406 -21.45993423461914 500
-107.8863830566406 -21.45993423461914 0
-105.2634353637695 -31.93131446838379 500
42.09517669677734 101.6267471313477 0
31.93131446838379 105.2634353637695 500
42.09517669677734 101.6267471313477 500
31.93131446838379 105.2634353637695 0
109.4703216552734 -10.78188514709473 0
109.4703216552734 -10.78188514709473 500
-21.45993423461914 107.8863830566406 500
-21.45993423461914 107.8863830566406 0
51.85364151000977 -97.01133728027344 500
51.85364151000977 -97.01133728027344 0
-69.78326416015625 85.03115081787109 0
-69.78326416015625 85.03115081787109 500
85.03115081787109 -69.78326416015625 0
77.78174591064453 -77.78174591064453 0
69.78326416015625 -85.03115081787109 0
61.11272430419922 -91.46165466308594 0
61.11272430419922 91.46165466308594 0
51.85364151000977 97.01133728027344 0
21.45993423461914 -107.8863830566406 0
-31.93131446838379 105.2634353637695 0
-42.09517669677734 101.6267471313477 0
-51.85364151000977 97.01133728027344 0
-61.11272430419922 91.46165466308594 0
-77.78174591064453 -77.78174591064453 0
-85.03115081787109 -69.78326416015625 0
-91.46165466308594 -61.11272430419922 0
-97.01133728027344 -51.85364151000977 0
-101.6267471313477 -42.09517669677734 0
-101.6267471313477 42.09517669677734 0
-109.4703216552734 10.78188514709473 0
-61.11272430419922 91.46165466308594 500
-51.85364151000977 97.01133728027344 500
-42.09517669677734 101.6267471313477 500
-101.6267471313477 -42.09517669677734 500
51.85364151000977 97.01133728027344 500
61.11272430419922 91.46165466308594 500
21.45993423461914 -107.8863830566406 500
77.78174591064453 -77.78174591064453 500
85.03115081787109 -69.78326416015625 500
-31.93131446838379 105.2634353637695 500
-97.01133728027344 -51.85364151000977 500
-109.4703216552734 10.78188514709473 500
-85.03115081787109 -69.78326416015625 500
-77.78174591064453 -77.78174591064453 500
-91.46165466308594 -61.11272430419922 500
-101.6267471313477 42.09517669677734 500
69.78326416015625 -85.03115081787109 500
61.11272430419922 -91.46165466308594 500
$EndNodes
$Elements
1 252 1 252
2 1 2 252
1 1 2 3 
2 2 1 6 
3 7 8 9 
4 8 7 12 
5 13 12 7 
6 12 13 18 
7 9 20 21 
8 20 9 8 
9 25 26 27 
10 26 25 30 
11 31 32 33 
12 32 31 36 
13 37 38 39 
14 38 37 42 
15 43 44 45 
16 44 43 48 
17 49 50 51 
18 50 49 54 
19 21 56 57 
20 56 21 20 
21 61 62 63 
22 62 61 66 
23 67 68 69 
24 68 67 72 
25 73 74 75 
26 74 73 78 
27 6 63 2 
28 63 6 61 
29 85 36 31 
30 36 85 90 
31 91 92 93 
32 92 91 96 
33 97 98 99 
34 98 97 102 
35 103 51 105 
36 51 103 49 
37 109 72 67 
38 72 109 114 
39 115 116 117 
40 116 115 120 
41 57 114 109 
42 114 57 56 
43 127 128 129 
44 128 127 132 
45 133 134 135 
46 134 133 138 
47 139 140 141 
48 140 139 144 
49 145 146 147 
50 146 145 150 
51 151 152 153 
52 152 151 156 
53 129 158 159 
54 158 129 128 
55 66 164 62 
56 164 66 168 
57 30 170 26 
58 170 30 174 
59 175 44 177 
60 44 175 45 
61 158 12 18 
62 128 12 158 
63 128 8 12 
64 132 8 128 
65 132 20 8 
66 32 20 132 
67 32 56 20 
68 36 56 32 
69 36 114 56 
70 90 114 36 
71 90 72 114 
72 214 72 90 
73 214 68 72 
74 220 68 214 
75 220 37 68 
76 226 37 220 
77 226 42 37 
78 232 42 226 
79 232 236 42 
80 174 236 232 
81 174 242 236 
82 30 242 174 
83 30 151 242 
84 25 151 30 
85 25 156 151 
86 256 156 25 
87 256 1 156 
88 78 1 256 
89 78 6 1 
90 73 6 78 
91 73 61 6 
92 54 61 73 
93 54 66 61 
94 49 66 54 
95 49 168 66 
96 103 168 49 
97 103 290 168 
98 144 290 103 
99 144 296 290 
100 139 296 144 
101 139 302 296 
102 96 302 139 
103 96 308 302 
104 91 308 96 
105 91 175 308 
106 316 175 91 
107 316 45 175 
108 322 45 316 
109 322 43 45 
110 328 43 322 
111 328 99 43 
112 334 99 328 
113 334 97 99 
114 340 97 334 
115 340 344 97 
116 145 344 340 
117 145 135 344 
118 147 135 145 
119 147 133 135 
120 115 133 147 
121 115 362 133 
122 362 115 117 
123 308 177 369 
124 177 308 175 
125 156 3 152 
126 3 156 1 
127 159 18 13 
128 18 159 158 
129 296 386 387 
130 386 296 302 
131 340 150 145 
132 150 340 396 
133 236 398 399 
134 398 236 242 
135 42 399 38 
136 399 42 236 
137 78 410 74 
138 410 78 256 
139 415 214 417 
140 214 415 220 
141 417 90 85 
142 90 417 214 
143 256 27 410 
144 27 256 25 
145 33 132 127 
146 132 33 32 
147 168 440 164 
148 440 168 290 
149 334 396 340 
150 396 334 450 
151 362 138 133 
152 138 362 456 
153 242 153 398 
154 153 242 151 
155 316 464 322 
156 464 316 468 
157 328 450 334 
158 450 328 474 
159 290 387 440 
160 387 290 296 
161 96 141 92 
162 141 96 139 
163 135 488 344 
164 488 135 134 
165 232 494 495 
166 494 232 226 
167 69 37 39 
168 37 69 68 
169 322 474 328 
170 474 322 464 
171 302 369 386 
172 369 302 308 
173 147 120 115 
174 120 147 146 
175 344 102 97 
176 102 344 488 
177 174 495 170 
178 495 174 232 
179 316 93 468 
180 93 316 91 
181 99 48 43 
182 48 99 98 
183 54 75 50 
184 75 54 73 
185 7 159 13 
186 9 159 7 
187 9 129 159 
188 21 129 9 
189 21 127 129 
190 57 127 21 
191 57 33 127 
192 109 33 57 
193 109 31 33 
194 67 31 109 
195 67 85 31 
196 69 85 67 
197 69 417 85 
198 39 417 69 
199 39 415 417 
200 38 415 39 
201 38 494 415 
202 399 494 38 
203 399 495 494 
204 398 495 399 
205 398 170 495 
206 153 170 398 
207 153 26 170 
208 152 26 153 
209 152 27 26 
210 3 27 152 
211 3 410 27 
212 2 410 3 
213 2 74 410 
214 63 74 2 
215 63 75 74 
216 62 75 63 
217 62 50 75 
218 164 50 62 
219 164 51 50 
220 440 51 164 
221 440 105 51 
222 387 105 440 
223 387 140 105 
224 386 140 387 
225 386 141 140 
226 369 141 386 
227 369 92 141 
228 177 92 369 
229 177 93 92 
230 44 93 177 
231 44 468 93 
232 48 468 44 
233 48 464 468 
234 98 464 48 
235 98 474 464 
236 102 474 98 
237 102 450 474 
238 488 450 102 
239 488 396 450 
240 134 396 488 
241 134 150 396 
242 138 150 134 
243 138 146 150 
244 456 146 138 
245 456 120 146 
246 120 456 116 
247 117 456 362 
248 456 117 116 
249 144 105 140 
250 105 144 103 
251 226 415 494 
252 415 226 220 
$EndElements
